<svg width="900.0000000000001" height="489.99999999999994" xmlns="http://www.w3.org/2000/svg">
 <g class="layer">
  <title>Layer 1</title>
  <path id="svg_1" fill="#67bbd6" d="m-3624.00161,433.38626l130.44445,-91.20709c130.44446,-92.10128 391.33337,-273.17418 652.22228,-273.84482c260.88891,0.67064 521.77783,181.74354 782.66674,237.18315c260.88891,54.09832 521.77782,-17.43665 782.66673,-18.10729c260.88891,0.67064 449.77782,168.20561 710.66673,132.43813c260.88892,-35.76749 593.77783,-207.30837 854.66674,-224.74502c260.88891,-18.33084 521.77782,20.10127 782.66673,92.30689c260.88891,72.20561 921.77782,174.20857 962.66674,-171.56187c40.88891,-345.77045 365.77782,-382.84335 626.66673,-347.07586c260.88891,35.76749 497.77782,628.8463 758.66673,646.28295c260.88891,18.33083 521.77783,-200.74502 782.66674,-255.51399c260.88891,-54.76896 521.77782,54.76897 782.66673,18.33084c260.88891,-37.33231 521.77782,-218.40521 782.66673,-328.61378c260.88892,-108.86729 521.77783,-146.87024 782.66674,0c260.88891,145.97605 521.77782,474.58984 782.66673,584.12776c260.88891,109.53793 521.77782,0 782.66674,-54.76896c260.88891,-54.76896 521.77782,-54.76896 782.66673,-36.43813c260.88891,17.43665 521.77782,55.43961 782.66673,36.43813c260.88891,-19.00148 521.77783,-90.53645 782.66674,-73.0998c260.88891,18.33084 521.77782,127.86876 782.66673,36.66167c260.88891,-92.10128 521.77782,-382.7121 782.66674,-529.58235c260.88891,-145.97605 521.77782,-145.97605 782.66673,18.33084c260.88891,164.30689 521.77782,492.92068 782.66673,529.3588c260.88891,37.33232 521.77783,-219.74649 782.66674,-291.95211c260.88891,-73.0998 521.77782,36.43813 652.22227,91.20709l130.44446,54.76897l0,547.68964l-130.44446,0c-130.44445,0 -391.33336,0 -652.22227,0c-260.88891,0 -521.77783,0 -782.66674,0c-260.88891,0 -521.77782,0 -782.66673,0c-260.88891,0 -521.77782,0 -782.66673,0c-260.88892,0 -521.77783,0 -782.66674,0c-260.88891,0 -521.77782,0 -782.66673,0c-260.88891,0 -521.77783,0 -782.66674,0c-260.88891,0 -521.77782,0 -782.66673,0c-260.88891,0 -521.77782,0 -782.66673,0c-260.88892,0 -521.77783,0 -782.66674,0c-260.88891,0 -521.77782,0 -782.66673,0c-260.88891,0 -521.77783,0 -782.66674,0c-260.88891,0 -521.77782,0 -782.66673,0c-260.88891,0 -521.77782,0 -782.66673,0c-260.88892,0 -521.77783,0 -782.66674,0c-260.88891,0 -521.77782,0 -782.66673,0c-260.88891,0 -521.77782,0 -782.66674,0c-260.88891,0 -521.77782,0 -782.66673,0c-260.88891,0 -521.77782,0 -782.66673,0c-260.88891,0 -521.77783,0 -782.66674,0c-260.88891,0 -521.77782,0 -782.66673,0c-260.88891,0 -521.77782,0 -782.66673,0c-260.88892,0 -521.77783,0 -782.66674,0c-260.88891,0 -521.77782,0 -652.22228,0l-130.44445,0l0,-328.61379z"/>
 </g>

</svg>