<?xml version="1.0" standalone="no"?>
<svg xmlns:xlink="http://www.w3.org/1999/xlink" id="wave" style="transform:rotate(0deg); transition: 0.3s" viewBox="0 0 1440 490" version="1.1" xmlns="http://www.w3.org/2000/svg"><defs><linearGradient id="sw-gradient-0" x1="0" x2="0" y1="1" y2="0"><stop stop-color="rgba(67.628, 142.724, 225.758, 1)" offset="0%"/><stop stop-color="rgba(97.817, 182.862, 237.141, 1)" offset="100%"/></linearGradient></defs><path style="transform:translate(0, 0px); opacity:1" fill="url(#sw-gradient-0)" d="M0,343L120,302.2C240,261,480,180,720,179.7C960,180,1200,261,1440,285.8C1680,310,1920,278,2160,277.7C2400,278,2640,310,2880,294C3120,278,3360,212,3600,204.2C3840,196,4080,245,4320,277.7C4560,310,4800,327,5040,294C5280,261,5520,180,5760,196C6000,212,6240,327,6480,334.8C6720,343,6960,245,7200,220.5C7440,196,7680,245,7920,228.7C8160,212,8400,131,8640,81.7C8880,33,9120,16,9360,81.7C9600,147,9840,294,10080,343C10320,392,10560,343,10800,318.5C11040,294,11280,294,11520,302.2C11760,310,12000,327,12240,318.5C12480,310,12720,278,12960,285.8C13200,294,13440,343,13680,302.2C13920,261,14160,131,14400,65.3C14640,0,14880,0,15120,73.5C15360,147,15600,294,15840,310.3C16080,327,16320,212,16560,179.7C16800,147,17040,196,17160,220.5L17280,245L17280,490L17160,490C17040,490,16800,490,16560,490C16320,490,16080,490,15840,490C15600,490,15360,490,15120,490C14880,490,14640,490,14400,490C14160,490,13920,490,13680,490C13440,490,13200,490,12960,490C12720,490,12480,490,12240,490C12000,490,11760,490,11520,490C11280,490,11040,490,10800,490C10560,490,10320,490,10080,490C9840,490,9600,490,9360,490C9120,490,8880,490,8640,490C8400,490,8160,490,7920,490C7680,490,7440,490,7200,490C6960,490,6720,490,6480,490C6240,490,6000,490,5760,490C5520,490,5280,490,5040,490C4800,490,4560,490,4320,490C4080,490,3840,490,3600,490C3360,490,3120,490,2880,490C2640,490,2400,490,2160,490C1920,490,1680,490,1440,490C1200,490,960,490,720,490C480,490,240,490,120,490L0,490Z"/></svg>